<svg xmlns="http://www.w3.org/2000/svg" viewBox="0 0 750 430" width="750" height="430" role="img" aria-label="实测：并发上限 8 时同时发 12 条，8 条进入批次、4 条等待；先进入的 4.26 秒完成，排队的 5.44 秒，差的 1.18 秒是等待时间"><style>.t2t-m{font-family:"JetBrains Mono Variable","JetBrains Mono","SF Mono",Menlo,Consolas,monospace}.t2t-s{font-family:"Noto Sans CJK SC","Noto Sans SC Variable","Noto Sans SC","Source Han Sans SC","PingFang SC","Microsoft YaHei",system-ui,sans-serif}</style><defs><marker id="qa" markerUnits="userSpaceOnUse" markerWidth="9" markerHeight="9" refX="8" refY="4.5" orient="auto"><path d="M0 0.8 8 4.5 0 8.2z" fill="#9AA1A9"/></marker></defs><text x="24" y="30" class="t2t-s" font-size="17.0" fill="#E8E8E8" text-anchor="start" font-weight="700" >12 条请求撞上 8 个位置</text><text x="24" y="52" class="t2t-s" font-size="12.8" fill="#9AA1A9" text-anchor="start" font-weight="400" >并发上限 8，同时发 12 条，每条最多 96 个 token</text><text x="24" y="100" class="t2t-s" font-size="13.1" fill="#9AA1A9" text-anchor="start" font-weight="600" >队列</text><line x1="86" y1="172" x2="678" y2="172" stroke="#3A404A"/><rect x="395.3" y="116.0" width="128.6" height="56.0" fill="#76B900" fill-opacity=".7"/><rect x="395.3" y="88.0" width="128.6" height="28.0" fill="#F5A623" fill-opacity=".45"/><rect x="523.9" y="165.0" width="11.2" height="7.0" fill="#76B900" fill-opacity=".7"/><rect x="523.9" y="144.0" width="11.2" height="21.0" fill="#F5A623" fill-opacity=".45"/><rect x="535.1" y="144.0" width="106.2" height="28.0" fill="#76B900" fill-opacity=".7"/><text x="402.4137931034483" y="80.0" class="t2t-s" font-size="12.5" fill="#F5A623" text-anchor="start" font-weight="400" >4 条在等</text><text x="402.4137931034483" y="132.0" class="t2t-s" font-size="12.5" fill="#3d6600" text-anchor="start" font-weight="400" >8 条在跑</text><text x="540.2068965517242" y="136.0" class="t2t-s" font-size="12.5" fill="#9AA1A9" text-anchor="start" font-weight="400" >空出位置，等的 4 条补进来</text><text x="24" y="212" class="t2t-s" font-size="13.1" fill="#9AA1A9" text-anchor="start" font-weight="600" >各条</text><rect x="86" y="200" width="434.8" height="9" rx="2" fill="#76B900" fill-opacity=".75"/><text x="78" y="209" class="t2t-m" font-size="11.2" fill="#9AA1A9" text-anchor="end" font-weight="400" >R1</text><rect x="86" y="213" width="434.8" height="9" rx="2" fill="#76B900" fill-opacity=".75"/><text x="78" y="222" class="t2t-m" font-size="11.2" fill="#9AA1A9" text-anchor="end" font-weight="400" >R2</text><rect x="86" y="226" width="434.8" height="9" rx="2" fill="#76B900" fill-opacity=".75"/><text x="78" y="235" class="t2t-m" font-size="11.2" fill="#9AA1A9" text-anchor="end" font-weight="400" >R3</text><rect x="86" y="239" width="434.8" height="9" rx="2" fill="#76B900" fill-opacity=".75"/><text x="78" y="248" class="t2t-m" font-size="11.2" fill="#9AA1A9" text-anchor="end" font-weight="400" >R4</text><rect x="86" y="252" width="434.8" height="9" rx="2" fill="#76B900" fill-opacity=".75"/><text x="78" y="261" class="t2t-m" font-size="11.2" fill="#9AA1A9" text-anchor="end" font-weight="400" >R5</text><rect x="86" y="265" width="434.8" height="9" rx="2" fill="#76B900" fill-opacity=".75"/><text x="78" y="274" class="t2t-m" font-size="11.2" fill="#9AA1A9" text-anchor="end" font-weight="400" >R6</text><rect x="86" y="278" width="434.8" height="9" rx="2" fill="#76B900" fill-opacity=".75"/><text x="78" y="287" class="t2t-m" font-size="11.2" fill="#9AA1A9" text-anchor="end" font-weight="400" >R7</text><rect x="86" y="291" width="434.8" height="9" rx="2" fill="#76B900" fill-opacity=".75"/><text x="78" y="300" class="t2t-m" font-size="11.2" fill="#9AA1A9" text-anchor="end" font-weight="400" >R8</text><rect x="86" y="304" width="434.8" height="9" rx="2" fill="#76B900" fill-opacity=".75"/><rect x="520.8" y="304" width="120.4" height="9" rx="2" fill="#F5A623" fill-opacity=".85"/><text x="78" y="313" class="t2t-m" font-size="11.2" fill="#9AA1A9" text-anchor="end" font-weight="400" >R9</text><rect x="86" y="317" width="434.8" height="9" rx="2" fill="#76B900" fill-opacity=".75"/><rect x="520.8" y="317" width="120.4" height="9" rx="2" fill="#F5A623" fill-opacity=".85"/><text x="78" y="326" class="t2t-m" font-size="11.2" fill="#9AA1A9" text-anchor="end" font-weight="400" >R10</text><rect x="86" y="330" width="434.8" height="9" rx="2" fill="#76B900" fill-opacity=".75"/><rect x="520.8" y="330" width="120.4" height="9" rx="2" fill="#F5A623" fill-opacity=".85"/><text x="78" y="339" class="t2t-m" font-size="11.2" fill="#9AA1A9" text-anchor="end" font-weight="400" >R11</text><rect x="86" y="343" width="434.8" height="9" rx="2" fill="#76B900" fill-opacity=".75"/><rect x="520.8" y="343" width="120.4" height="9" rx="2" fill="#F5A623" fill-opacity=".85"/><text x="78" y="352" class="t2t-m" font-size="11.2" fill="#9AA1A9" text-anchor="end" font-weight="400" >R12</text><line x1="86" y1="362" x2="678" y2="362" stroke="#3A404A"/><line x1="86.0" y1="362" x2="86.0" y2="366" stroke="#3A404A"/><text x="86.0" y="380" class="t2t-m" font-size="11.8" fill="#9AA1A9" text-anchor="middle" font-weight="400" >0</text><line x1="188.1" y1="362" x2="188.1" y2="366" stroke="#3A404A"/><text x="188.0689655172414" y="380" class="t2t-m" font-size="11.8" fill="#9AA1A9" text-anchor="middle" font-weight="400" >1</text><line x1="290.1" y1="362" x2="290.1" y2="366" stroke="#3A404A"/><text x="290.1379310344828" y="380" class="t2t-m" font-size="11.8" fill="#9AA1A9" text-anchor="middle" font-weight="400" >2</text><line x1="392.2" y1="362" x2="392.2" y2="366" stroke="#3A404A"/><text x="392.2068965517242" y="380" class="t2t-m" font-size="11.8" fill="#9AA1A9" text-anchor="middle" font-weight="400" >3</text><line x1="494.3" y1="362" x2="494.3" y2="366" stroke="#3A404A"/><text x="494.2758620689655" y="380" class="t2t-m" font-size="11.8" fill="#9AA1A9" text-anchor="middle" font-weight="400" >4</text><line x1="596.3" y1="362" x2="596.3" y2="366" stroke="#3A404A"/><text x="596.344827586207" y="380" class="t2t-m" font-size="11.8" fill="#9AA1A9" text-anchor="middle" font-weight="400" >5</text><text x="678" y="380" class="t2t-s" font-size="11.8" fill="#9AA1A9" text-anchor="end" font-weight="400" >秒</text><rect x="86" y="395" width="14" height="10" rx="2" fill="#76B900" fill-opacity=".75"/><text x="108" y="404" class="t2t-s" font-size="12.5" fill="#9AA1A9" text-anchor="start" font-weight="400" >在批次里算：先进入的 8 条 4.26 s</text><rect x="386" y="395" width="14" height="10" rx="2" fill="#F5A623" fill-opacity=".85"/><text x="408" y="404" class="t2t-s" font-size="12.5" fill="#9AA1A9" text-anchor="start" font-weight="400" >在队列里等：排队的 4 条多花 1.18 s</text></svg>
