<svg xmlns="http://www.w3.org/2000/svg" viewBox="0 0 720 290" width="720" height="290" role="img" aria-label="一步训练的四个阶段：前向、反向、更新、同步"><style>.m{font-family:"JetBrains Mono","SF Mono",Menlo,Consolas,monospace}.s{font-family:-apple-system,BlinkMacSystemFont,"Segoe UI","PingFang SC","Noto Sans SC",sans-serif}@keyframes hot{0%,1%{opacity:.2}3%,23%{opacity:1}25%,100%{opacity:.2}}.hot{animation:hot 8.0s linear infinite}@media(prefers-reduced-motion:reduce){.hot,.fl,.gl,.r1,.st,.r2{animation:none}}</style><rect x="56" y="36" width="240" height="66" rx="9" fill="#FFFFFF" stroke="#0074C8" stroke-width="1.2" /><text x="176" y="66" class="m" font-size="17" fill="#1A1A1A" text-anchor="middle" font-weight="700" >bf16 工作副本</text><text x="176" y="88" class="s" font-size="13.5" fill="#6B7280" text-anchor="middle" font-weight="400" >用来算</text><rect x="424" y="36" width="240" height="66" rx="9" fill="#FFFFFF" stroke="#76B900" stroke-width="1.2" /><text x="544" y="66" class="m" font-size="17" fill="#1A1A1A" text-anchor="middle" font-weight="700" >fp32 正本</text><text x="544" y="88" class="s" font-size="13.5" fill="#6B7280" text-anchor="middle" font-weight="400" >用来存</text><circle cx="130" cy="190" r="32" fill="#F5F6F8" stroke="#D7DBE0" stroke-width="1.4"/><circle class="hot" cx="130" cy="190" r="32" fill="none" stroke="#76B900" stroke-width="3.2" style="animation-delay:-0s"/><text x="130" y="188" class="m" font-size="15" fill="#76B900" text-anchor="middle" font-weight="700" >1</text><text x="130" y="208" class="s" font-size="14.5" fill="#1A1A1A" text-anchor="middle" font-weight="600" >前向</text><path d="M164 190h92" stroke="#D7DBE0" stroke-width="2" stroke-linecap="round"/><circle cx="290" cy="190" r="32" fill="#F5F6F8" stroke="#D7DBE0" stroke-width="1.4"/><circle class="hot" cx="290" cy="190" r="32" fill="none" stroke="#76B900" stroke-width="3.2" style="animation-delay:-2s"/><text x="290" y="188" class="m" font-size="15" fill="#76B900" text-anchor="middle" font-weight="700" >2</text><text x="290" y="208" class="s" font-size="14.5" fill="#1A1A1A" text-anchor="middle" font-weight="600" >反向</text><path d="M324 190h92" stroke="#D7DBE0" stroke-width="2" stroke-linecap="round"/><circle cx="450" cy="190" r="32" fill="#F5F6F8" stroke="#D7DBE0" stroke-width="1.4"/><circle class="hot" cx="450" cy="190" r="32" fill="none" stroke="#76B900" stroke-width="3.2" style="animation-delay:-4s"/><text x="450" y="188" class="m" font-size="15" fill="#76B900" text-anchor="middle" font-weight="700" >3</text><text x="450" y="208" class="s" font-size="14.5" fill="#1A1A1A" text-anchor="middle" font-weight="600" >更新</text><path d="M484 190h92" stroke="#D7DBE0" stroke-width="2" stroke-linecap="round"/><circle cx="610" cy="190" r="32" fill="#F5F6F8" stroke="#D7DBE0" stroke-width="1.4"/><circle class="hot" cx="610" cy="190" r="32" fill="none" stroke="#76B900" stroke-width="3.2" style="animation-delay:-6s"/><text x="610" y="188" class="m" font-size="15" fill="#76B900" text-anchor="middle" font-weight="700" >4</text><text x="610" y="208" class="s" font-size="14.5" fill="#1A1A1A" text-anchor="middle" font-weight="600" >同步</text><path d="M642 190q46 52 -156 52H234q-150 0 -104 -52" fill="none" stroke="#D7DBE0" stroke-width="1.8" stroke-dasharray="5 5"/><path d="M160 102v52" stroke="#0074C8" stroke-width="2" opacity=".5"/><path d="M520 102v52" stroke="#76B900" stroke-width="2" opacity=".5"/><path d="M610 158V118h-66" fill="none" stroke="#76B900" stroke-width="2" opacity=".5"/></svg>
